<svg width="40" height="40" viewBox="0 0 40 40" fill="none" xmlns="http://www.w3.org/2000/svg">
<path d="M0.0117188 12.0633C0.0117188 5.8494 5.04911 0.812012 11.2631 0.812012H27.765C33.979 0.812012 39.0163 5.84941 39.0163 12.0633V28.5653C39.0163 34.7792 33.9789 39.8166 27.765 39.8166H11.263C5.04911 39.8166 0.0117188 34.7792 0.0117188 28.5653V12.0633Z" fill="#EBD96B"/>
<path d="M28.8377 16.6091C28.8496 16.7757 28.8496 16.9423 28.8496 17.1089C28.8496 22.1896 24.9826 28.0437 17.9148 28.0437C15.7373 28.0437 13.7146 27.413 12.0131 26.3184C12.3224 26.3541 12.6199 26.366 12.9412 26.366C14.7378 26.366 16.3917 25.7592 17.7125 24.724C16.0229 24.6883 14.6069 23.5817 14.1191 22.0587C14.3571 22.0944 14.595 22.1182 14.8449 22.1182C15.19 22.1182 15.5351 22.0706 15.8563 21.9873C14.0953 21.6303 12.7745 20.0835 12.7745 18.2154V18.1679C13.2862 18.4534 13.8811 18.6319 14.5117 18.6557C13.4765 17.9655 12.7983 16.7876 12.7983 15.4549C12.7983 14.741 12.9887 14.0866 13.3219 13.5155C15.2138 15.8476 18.0575 17.3706 21.2463 17.5372C21.1869 17.2516 21.1511 16.9542 21.1511 16.6567C21.1511 14.5388 22.8646 12.8135 24.9944 12.8135C26.101 12.8135 27.1004 13.2775 27.8025 14.0271C28.671 13.8606 29.5039 13.5393 30.2417 13.099C29.9561 13.9915 29.3493 14.7411 28.5521 15.217C29.3255 15.1337 30.0751 14.9195 30.7652 14.6221C30.2418 15.3836 29.5873 16.0617 28.8377 16.6091V16.6091Z" fill="black"/>
</svg>
