<svg width="40" height="40" viewBox="0 0 40 40" fill="none" xmlns="http://www.w3.org/2000/svg">
<path d="M0.505859 12.0633C0.505859 5.8494 5.54325 0.812012 11.7572 0.812012H28.2592C34.4731 0.812012 39.5105 5.84941 39.5105 12.0633V28.5653C39.5105 34.7792 34.4731 39.8166 28.2591 39.8166H11.7572C5.54325 39.8166 0.505859 34.7792 0.505859 28.5653V12.0633Z" fill="#EBD96B"/>
<path d="M19.9677 16.0621C17.6383 16.0621 15.7594 17.9409 15.7594 20.2703C15.7594 22.5997 17.6383 24.4786 19.9677 24.4786C22.2971 24.4786 24.176 22.5997 24.176 20.2703C24.176 17.9409 22.2971 16.0621 19.9677 16.0621ZM19.9677 23.0062C18.4624 23.0062 17.2318 21.7793 17.2318 20.2703C17.2318 18.7614 18.4587 17.5344 19.9677 17.5344C21.4767 17.5344 22.7036 18.7614 22.7036 20.2703C22.7036 21.7793 21.473 23.0062 19.9677 23.0062V23.0062ZM25.3297 15.8899C25.3297 16.4356 24.8902 16.8715 24.3481 16.8715C23.8024 16.8715 23.3665 16.432 23.3665 15.8899C23.3665 15.3479 23.8061 14.9084 24.3481 14.9084C24.8902 14.9084 25.3297 15.3479 25.3297 15.8899ZM28.1169 16.8861C28.0546 15.5713 27.7543 14.4066 26.791 13.447C25.8314 12.4874 24.6668 12.1871 23.3519 12.1212C21.9968 12.0442 17.935 12.0442 16.5799 12.1212C15.2687 12.1834 14.104 12.4838 13.1407 13.4433C12.1775 14.4029 11.8808 15.5676 11.8149 16.8825C11.738 18.2376 11.738 22.2994 11.8149 23.6545C11.8772 24.9694 12.1775 26.1341 13.1407 27.0936C14.104 28.0532 15.265 28.3536 16.5799 28.4195C17.935 28.4964 21.9968 28.4964 23.3519 28.4195C24.6668 28.3572 25.8314 28.0569 26.791 27.0936C27.7506 26.1341 28.0509 24.9694 28.1169 23.6545C28.1938 22.2994 28.1938 18.2413 28.1169 16.8861V16.8861ZM26.3662 25.1085C26.0805 25.8264 25.5275 26.3794 24.8059 26.6688C23.7255 27.0973 21.1617 26.9984 19.9677 26.9984C18.7737 26.9984 16.2063 27.0936 15.1295 26.6688C14.4116 26.3831 13.8586 25.8301 13.5692 25.1085C13.1407 24.0281 13.2396 21.4643 13.2396 20.2703C13.2396 19.0763 13.1444 16.5089 13.5692 15.4321C13.8549 14.7142 14.408 14.1612 15.1295 13.8719C16.2099 13.4433 18.7737 13.5422 19.9677 13.5422C21.1617 13.5422 23.7291 13.447 24.8059 13.8719C25.5238 14.1575 26.0768 14.7106 26.3662 15.4321C26.7947 16.5126 26.6958 19.0763 26.6958 20.2703C26.6958 21.4643 26.7947 24.0318 26.3662 25.1085Z" fill="black"/>
</svg>
