<svg width="40" height="40" viewBox="0 0 40 40" fill="none" xmlns="http://www.w3.org/2000/svg">
<path d="M0 12.0633C0 5.8494 5.03739 0.812012 11.2513 0.812012H27.7533C33.9672 0.812012 39.0046 5.84941 39.0046 12.0633V28.5653C39.0046 34.7792 33.9672 39.8166 27.7533 39.8166H11.2513C5.03739 39.8166 0 34.7792 0 28.5653V12.0633Z" fill="#EBD96B"/>
<path d="M23.6369 21.1114L24.1577 17.7176H20.9014V15.5154C20.9014 14.5869 21.3562 13.6819 22.8147 13.6819H24.2951V10.7925C24.2951 10.7925 22.9517 10.5632 21.6672 10.5632C18.9855 10.5632 17.2326 12.1887 17.2326 15.1312V17.7176H14.2516V21.1114H17.2326V29.3155H20.9014V21.1114H23.6369Z" fill="black"/>
</svg>
